<?xml version="1.0" standalone="no"?>
<!DOCTYPE svg PUBLIC "-//W3C//DTD SVG 20010904//EN"
 "http://www.w3.org/TR/2001/REC-SVG-20010904/DTD/svg10.dtd">
<svg version="1.0" xmlns="http://www.w3.org/2000/svg"
 width="75.000000pt" height="75.000000pt" viewBox="0 0 75.000000 75.000000"
 preserveAspectRatio="xMidYMid meet">
<metadata>
Created by potrace 1.16, written by Peter Selinger 2001-2019
</metadata>
<g transform="translate(0.000000,75.000000) scale(0.003750,-0.002488)"
fill="#000000" stroke="none">
<path d="M0 15075 l0 -15075 10000 0 10000 0 0 15075 0 15075 -10000 0 -10000
0 0 -15075z m11810 4290 l0 -1345 -1875 0 -1875 0 0 1345 0 1345 1875 0 1875
0 0 -1345z m-4310 45 l0 -620 -210 0 -210 0 0 620 0 620 210 0 210 0 0 -620z
m260 -6590 l0 -470 -215 0 -215 0 0 470 0 470 215 0 215 0 0 -470z m4140 0 l0
-470 -215 0 -215 0 0 470 0 470 215 0 215 0 0 -470z"/>
<path d="M8440 20240 l0 -210 620 0 620 0 0 210 0 210 -620 0 -620 0 0 -210z"/>
<path d="M10450 20240 l0 -210 615 0 615 0 0 210 0 210 -615 0 -615 0 0 -210z"/>
<path d="M8870 19410 l0 -190 405 0 405 0 0 190 0 190 -405 0 -405 0 0 -190z"/>
<path d="M10750 19410 l0 -190 405 0 405 0 0 190 0 190 -405 0 -405 0 0 -190z"/>
</g>
</svg>
