<?xml version="1.0" standalone="no"?>
<!DOCTYPE svg PUBLIC "-//W3C//DTD SVG 20010904//EN"
 "http://www.w3.org/TR/2001/REC-SVG-20010904/DTD/svg10.dtd">
<svg version="1.0" xmlns="http://www.w3.org/2000/svg"
 width="2920.000000pt" height="420.000000pt" viewBox="0 0 2920.000000 420.000000"
 preserveAspectRatio="xMidYMid meet">
<metadata>
Created by potrace 1.16, written by Peter Selinger 2001-2019
</metadata>
<g transform="translate(0.000000,420.000000) scale(0.100000,-0.100000)"
fill="#000000" stroke="none">
<path d="M1340 3000 l0 -200 -195 0 -195 0 0 -205 0 -205 195 0 195 0 0 -200
0 -200 390 0 390 0 0 -195 0 -195 -585 0 -585 0 0 -205 0 -205 590 0 590 0 0
200 0 200 200 0 200 0 0 205 0 205 -200 0 -200 0 0 200 0 200 -390 0 -390 0 0
195 0 195 590 0 590 0 0 205 0 205 -595 0 -595 0 0 -200z"/>
<path d="M2910 2995 l0 -205 200 0 200 0 0 205 0 205 -200 0 -200 0 0 -205z"/>
<path d="M6040 2195 l0 -1005 590 0 590 0 0 200 0 200 195 0 195 0 0 205 0
205 -195 0 -195 0 0 195 0 195 195 0 195 0 0 205 0 205 -195 0 -195 0 0 200 0
200 -590 0 -590 0 0 -1005z m1170 400 l0 -195 -385 0 -385 0 0 195 0 195 385
0 385 0 0 -195z m0 -800 l0 -195 -385 0 -385 0 0 195 0 195 385 0 385 0 0
-195z"/>
<path d="M12300 3000 l0 -200 -200 0 -200 0 0 -205 0 -205 200 0 200 0 0 -400
0 -400 195 0 195 0 0 -200 0 -200 200 0 200 0 0 205 0 205 -195 0 -195 0 0
395 0 395 195 0 195 0 0 205 0 205 -195 0 -195 0 0 200 0 200 -200 0 -200 0 0
-200z"/>
<path d="M13470 2195 l0 -1005 200 0 200 0 0 600 0 600 385 0 385 0 0 -600 0
-600 200 0 200 0 0 605 0 605 -195 0 -195 0 0 200 0 200 -390 0 -390 0 0 200
0 200 -200 0 -200 0 0 -1005z"/>
<path d="M22080 3000 l0 -200 -195 0 -195 0 0 -605 0 -605 195 0 195 0 0 -200
0 -200 395 0 395 0 0 205 0 205 -390 0 -390 0 0 595 0 595 390 0 390 0 0 205
0 205 -395 0 -395 0 0 -200z"/>
<path d="M23250 2395 l0 -805 195 0 195 0 0 -200 0 -200 200 0 200 0 0 205 0
205 -195 0 -195 0 0 800 0 800 -200 0 -200 0 0 -805z"/>
<path d="M26770 2195 l0 -1005 595 0 595 0 0 200 0 200 195 0 195 0 0 405 0
405 -195 0 -195 0 0 200 0 200 -395 0 -395 0 0 200 0 200 -200 0 -200 0 0
-1005z m1180 -200 l0 -395 -390 0 -390 0 0 395 0 395 390 0 390 0 0 -395z"/>
<path d="M3690 2595 l0 -205 195 0 195 0 0 -195 0 -195 -195 0 -195 0 0 -405
0 -405 200 0 200 0 0 400 0 400 190 0 190 0 0 -400 0 -400 200 0 200 0 0 405
0 405 -195 0 -195 0 0 195 0 195 195 0 195 0 0 205 0 205 -200 0 -200 0 0
-200 0 -200 -190 0 -190 0 0 200 0 200 -200 0 -200 0 0 -205z"/>
<path d="M7990 1995 l0 -805 200 0 200 0 0 400 0 400 200 0 200 0 0 200 0 200
390 0 390 0 0 205 0 205 -395 0 -395 0 0 -200 0 -200 -195 0 -195 0 0 200 0
200 -200 0 -200 0 0 -805z"/>
<path d="M10340 2600 l0 -200 -195 0 -195 0 0 -405 0 -405 195 0 195 0 0 -200
0 -200 395 0 395 0 0 200 0 200 195 0 195 0 0 405 0 405 -195 0 -195 0 0 200
0 200 -395 0 -395 0 0 -200z m780 -605 l0 -395 -385 0 -385 0 0 395 0 395 385
0 385 0 0 -395z"/>
<path d="M15820 2600 l0 -200 -195 0 -195 0 0 -405 0 -405 195 0 195 0 0 -200
0 -200 590 0 590 0 0 205 0 205 -195 0 -195 0 0 195 0 195 195 0 195 0 0 205
0 205 -195 0 -195 0 0 200 0 200 -395 0 -395 0 0 -200z m780 -405 l0 -195
-385 0 -385 0 0 195 0 195 385 0 385 0 0 -195z"/>
<path d="M17380 1995 l0 -805 200 0 200 0 0 400 0 400 195 0 195 0 0 200 0
200 395 0 395 0 0 205 0 205 -400 0 -400 0 0 -200 0 -200 -190 0 -190 0 0 200
0 200 -200 0 -200 0 0 -805z"/>
<path d="M19730 2600 l0 -200 -195 0 -195 0 0 -205 0 -205 390 0 390 0 0 -195
0 -195 -390 0 -390 0 0 -205 0 -205 395 0 395 0 0 200 0 200 195 0 195 0 0
205 0 205 -195 0 -195 0 0 195 0 195 195 0 195 0 0 205 0 205 -395 0 -395 0 0
-200z"/>
<path d="M24420 2195 l0 -605 200 0 200 0 0 -200 0 -200 395 0 395 0 0 200 0
200 190 0 190 0 0 -200 0 -200 200 0 200 0 0 205 0 205 -195 0 -195 0 0 600 0
600 -200 0 -200 0 0 -600 0 -600 -385 0 -385 0 0 600 0 600 -205 0 -205 0 0
-605z"/>
<path d="M2910 1795 l0 -605 200 0 200 0 0 605 0 605 -200 0 -200 0 0 -605z"/>
</g>
</svg>
