<?xml version="1.0" standalone="yes"?>
<svg xmlns="http://www.w3.org/2000/svg" width="2920" height="420">
<path style="fill:#211f21; stroke:none;" d="M0 0L0 420L2920 420L2920 0L0 0z"/>
<path style="fill:#5a585a; stroke:none;" d="M135 100L135 101L252 101L252 141C255.406 132.882 253.001 119.796 253 111C253 108.197 253.918 103.025 251.397 101.028C246.012 96.763 227.786 100 221 100L135 100M291 100L291 101L330 101C319.726 96.6889 302.172 100 291 100M604 100L604 101L722 101L686 100L604 100M1230 100L1230 101L1269 101L1269 140L1270 111L1268.4 101.028L1258 100L1230 100M1347 100L1347 101L1387 101C1376.49 96.589 1358.43 100 1347 100M2208 100L2208 101L2286 101L2262 100L2208 100M2326 100L2326 101L2365 101C2354.73 96.6888 2337.17 100 2326 100M2678 100L2678 101L2717 101C2706.73 96.6888 2689.17 100 2678 100z"/>
<path style="fill:#919090; stroke:none;" d="M134 101L134 140L107 140L96.6034 141.028L95 151L95 180L96 180L96 141L123 141L133.397 139.972L135 130L134 101z"/>
<path style="fill:#fefefe; stroke:none;" d="M135 101L135 140L252 140L252 101L135 101M291 101L291 140L330 140L330 101L291 101z"/>
<path style="fill:#919090; stroke:none;" d="M330 101L330 140L331 140C331 128.828 334.311 111.274 330 101z"/>
<path style="fill:#fefefe; stroke:none;" d="M604 101L604 300L721 300L721 261L665 261L644.603 259.397L643 248L643 220L721 220L721 181L643 181L643 153L644.603 141.603L665 140L721 140L721 101L604 101z"/>
<path style="fill:#c5c4c5; stroke:none;" d="M721 101L721 140L644 140L644 141L722 141C722 129.566 725.411 111.512 721 101z"/>
<path style="fill:#fefefe; stroke:none;" d="M1230 101L1230 141L1191 141L1191 180L1230 180L1230 260L1269 260L1269 180L1308 180L1308 141L1269 141L1269 101L1230 101z"/>
<path style="fill:#c5c4c5; stroke:none;" d="M1347 101L1347 300L1348 300L1348 160L1348 120L1347 101z"/>
<path style="fill:#fefefe; stroke:none;" d="M1348 101L1348 300L1386 300L1386 212C1386 205.413 1382.77 186.437 1387.6 181.603C1391.34 177.862 1403.07 180 1408 180L1465 180L1465 141L1408 141L1387.6 139.397L1386 129L1386 101L1348 101z"/>
<path style="fill:#c5c4c5; stroke:none;" d="M1386 101L1386 140L1387 140C1387 128.828 1390.31 111.274 1386 101z"/>
<path style="fill:#fefefe; stroke:none;" d="M2208 101L2208 140L2286 140L2286 101L2208 101z"/>
<path style="fill:#919090; stroke:none;" d="M2286 101L2286 140L2287 140C2287 128.827 2290.31 111.274 2286 101M2325 101L2325 218L2325 248L2326.03 259.397L2336 261L2364 261L2364 289L2365.03 299.397L2375 301L2404 301L2404 300L2365 300L2365 271L2363.4 261.028L2353 260L2326 260L2326 149C2326 135.485 2330.21 113.408 2325 101z"/>
<path style="fill:#fefefe; stroke:none;" d="M2326 101L2326 260L2364 260L2364 101L2326 101z"/>
<path style="fill:#c5c4c5; stroke:none;" d="M2364 101L2364 261L2404 261L2404 260L2365 260L2365 149C2365 135.485 2369.21 113.408 2364 101z"/>
<path style="fill:#919090; stroke:none;" d="M2677 101L2677 251L2677 287C2677 290.316 2675.65 297.632 2678.6 299.972C2683.99 304.237 2702.21 301 2709 301L2795 301L2795 300L2678 300L2678 160L2678 120L2677 101z"/>
<path style="fill:#fefefe; stroke:none;" d="M2678 101L2678 300L2795 300L2795 261L2717 261L2717 180L2795 180L2795 141L2717 141L2717 101L2678 101z"/>
<path style="fill:#5a585a; stroke:none;" d="M95 140L96 141L95 140z"/>
<path style="fill:#c5c4c5; stroke:none;" d="M134 140L134 180L96 180L96 181L135 181L135 141L252 141L216 140L134 140M291 140L291 141L330 141C319.726 136.689 302.172 140 291 140z"/>
<path style="fill:#5a585a; stroke:none;" d="M330 140L331 141L330 140M369 140L370 141L369 140z"/>
<path style="fill:#919090; stroke:none;" d="M370 140L370 141L408 141C397.964 136.789 380.911 140 370 140z"/>
<path style="fill:#5a585a; stroke:none;" d="M408 140L409 141L408 140M447 140L448 141L447 140z"/>
<path style="fill:#919090; stroke:none;" d="M447 180L420 180C417.09 180 412.052 179.088 409.603 181.028C404.782 184.846 407.988 206.068 408 212C408.006 214.704 407.378 218.95 410.318 220.397C418.905 224.622 437.41 221 447 221L447 280L448.603 299.972L459 301L487 301L487 300L448 300L448 241L446.397 221.028L436 220L409 220L409 181L436 181L446.397 179.972L448 170L448 141L487 141L458 140L448.028 141.603L447 152L447 180M721 180L644 180L644 141L643 141L643 169L644.028 179.397L659 181L704 181L720.972 179.397L722 169L722 141L760 141C752.124 137.695 739.531 139.996 731 140C728.124 140.001 723.158 139.159 721.603 142.318C717.272 151.12 721 170.166 721 180z"/>
<path style="fill:#5a585a; stroke:none;" d="M760 140L761 141L760 140z"/>
<path style="fill:#919090; stroke:none;" d="M800 140L800 141L839 141C828.726 136.689 811.172 140 800 140M878 140L878 141L956 141L956 180L957 151L955.397 141.028L935 140L878 140z"/>
<path style="fill:#5a585a; stroke:none;" d="M956 140L957 141L956 140M1034 140L1035 141L1034 140z"/>
<path style="fill:#919090; stroke:none;" d="M1034 180L996 180L996 181L1023 181L1033.4 179.972L1035 170L1035 141L1113 141L1094 140L1054 140L1035.03 141.603L1034 152L1034 180M1191 140L1191 141L1230 141C1219.73 136.689 1202.17 140 1191 140z"/>
<path style="fill:#c5c4c5; stroke:none;" d="M1269 140L1270 141L1269 140z"/>
<path style="fill:#919090; stroke:none;" d="M1270 140L1270 141L1308 141L1308 180L1309 151L1307.4 141.028L1297 140L1270 140z"/>
<path style="fill:#5a585a; stroke:none;" d="M1308 140L1309 141L1308 140z"/>
<path style="fill:#919090; stroke:none;" d="M1387 140L1387 141L1465 141L1441 140L1387 140M1582 140L1582 141L1660 141L1660 170L1661.6 179.972L1672 181L1699 181L1699 180L1661 180L1661 152L1659.97 141.603L1640 140L1582 140z"/>
<path style="fill:#5a585a; stroke:none;" d="M1660 140L1661 141L1660 140M1738 140L1739 141L1738 140z"/>
<path style="fill:#919090; stroke:none;" d="M1778 301L1778 300L1739 300L1739 141L1778 141C1770.12 137.694 1757.53 139.999 1749 140C1746.2 140 1741.02 139.082 1739.03 141.603C1734.54 147.265 1738 166.839 1738 174L1738 264L1738 289C1738 291.91 1737.09 296.948 1739.03 299.397C1741.02 301.918 1746.2 301 1749 301L1778 301M1817 140L1817 141L1895 141L1871 140L1817 140z"/>
<path style="fill:#5a585a; stroke:none;" d="M1973 140L1974 141L1973 140z"/>
<path style="fill:#919090; stroke:none;" d="M1974 140L1974 141L2051 141L2027 140L1974 140z"/>
<path style="fill:#5a585a; stroke:none;" d="M2051 140L2052 141L2051 140z"/>
<path style="fill:#919090; stroke:none;" d="M2169 140L2169 141L2208 141C2197.73 136.689 2180.17 140 2169 140z"/>
<path style="fill:#c5c4c5; stroke:none;" d="M2208 140L2208 141L2286 141L2262 140L2208 140z"/>
<path style="fill:#5a585a; stroke:none;" d="M2286 140L2287 141L2286 140z"/>
<path style="fill:#919090; stroke:none;" d="M2443 140L2443 141L2482 141C2471.73 136.689 2454.17 140 2443 140z"/>
<path style="fill:#5a585a; stroke:none;" d="M2560 140L2561 141L2560 140z"/>
<path style="fill:#919090; stroke:none;" d="M2561 140L2561 141L2599 141L2599 260L2572 260L2561.6 261.028L2560 271L2560 300L2482 300L2482 301L2540 301L2559.97 299.397L2561 289L2561 261L2589 261C2591.8 261 2596.98 261.918 2598.97 259.397C2602.57 254.85 2600 240.657 2600 235L2600 168C2600 162.619 2602.85 144.552 2598.4 141.028C2595.95 139.088 2590.91 140 2588 140L2561 140z"/>
<path style="fill:#5a585a; stroke:none;" d="M2599 140L2600 141L2599 140z"/>
<path style="fill:#919090; stroke:none;" d="M2717 140L2717 141L2795 141L2771 140L2717 140z"/>
<path style="fill:#fefefe; stroke:none;" d="M96 141L96 180L134 180L134 141L96 141z"/>
<path style="fill:#c5c4c5; stroke:none;" d="M369 141L369 170L370.603 179.972L381 181L409 181L409 141L408 141L408 180L370 180C370 168.828 373.311 151.274 369 141z"/>
<path style="fill:#fefefe; stroke:none;" d="M370 141L370 180L408 180L408 141L370 141M448 141L448 180L487 180L487 141L448 141z"/>
<path style="fill:#211f21; stroke:none;" d="M644 141L644 180L721 180L721 141L644 141z"/>
<path style="fill:#fefefe; stroke:none;" d="M722 141L722 180L760 180L760 141L722 141z"/>
<path style="fill:#c5c4c5; stroke:none;" d="M760 141L760 180L721 180L721 221L760 221L760 260L761 260L761 231L759.397 221.028L749 220L722 220L722 181L749 181L759.397 179.972L761 170L760 141z"/>
<path style="fill:#5a585a; stroke:none;" d="M799 141L799 300L800 300L800 189C800 175.485 804.206 153.407 799 141z"/>
<path style="fill:#fefefe; stroke:none;" d="M800 141L800 300L839 300L839 220L878 220L878 181L839 181L839 141L800 141M878 141L878 180L956 180L956 141L878 141M1035 141L1035 180L1113 180L1113 141L1035 141z"/>
<path style="fill:#5a585a; stroke:none;" d="M1190 141L1190 181L1191 181C1191 169.566 1194.41 151.512 1190 141z"/>
<path style="fill:#fefefe; stroke:none;" d="M1582 141L1582 180L1660 180L1660 141L1582 141M1739 141L1739 300L1778 300L1778 220L1817 220L1817 181L1778 181L1778 141L1739 141z"/>
<path style="fill:#5a585a; stroke:none;" d="M1816 141L1816 180L1817 180C1817 168.828 1820.31 151.274 1816 141z"/>
<path style="fill:#fefefe; stroke:none;" d="M1817 141L1817 180L1895 180L1895 141L1817 141z"/>
<path style="fill:#5a585a; stroke:none;" d="M1895 141L1895 181L1896 181C1896 169.566 1899.41 151.512 1895 141z"/>
<path style="fill:#c5c4c5; stroke:none;" d="M1973 141L1973 180L1974 180C1974 168.828 1977.31 151.274 1973 141z"/>
<path style="fill:#fefefe; stroke:none;" d="M1974 141L1974 169L1972.4 179.397L1962 181L1935 181L1935 220L2012 220L2012 192L2013.6 181.603L2024 180L2051 180L2051 141L1974 141z"/>
<path style="fill:#c5c4c5; stroke:none;" d="M2051 141L2051 180L2013 180L2013 181L2040 181L2050.4 179.972L2052 170L2051 141z"/>
<path style="fill:#fefefe; stroke:none;" d="M2169 141L2169 260L2208 260L2208 141L2169 141z"/>
<path style="fill:#5a585a; stroke:none;" d="M2208 141L2208 260L2209 260L2209 177L2208 141M2442 141L2442 260L2443 260L2443 177L2442 141z"/>
<path style="fill:#fefefe; stroke:none;" d="M2443 141L2443 260L2482 260L2482 141L2443 141z"/>
<path style="fill:#5a585a; stroke:none;" d="M2482 141L2482 260L2483 260L2483 177L2482 141z"/>
<path style="fill:#c5c4c5; stroke:none;" d="M2560 141L2560 260L2482 260L2482 261L2561 261L2561 177L2560 141z"/>
<path style="fill:#fefefe; stroke:none;" d="M2561 141L2561 260L2599 260L2599 141L2561 141z"/>
<path style="fill:#5a585a; stroke:none;" d="M2795 141L2795 180L2796 180C2796 168.827 2799.31 151.274 2795 141M95 180L96 181L95 180z"/>
<path style="fill:#919090; stroke:none;" d="M212 221L212 220L135 220L135 181L213 181C207.784 178.811 200.619 180 195 180L156 180C150.604 180 141.221 178.191 136.318 180.603C133.378 182.05 134.006 186.296 134 189C133.988 194.932 130.782 216.154 135.603 219.972C139.582 223.124 151.103 221 156 221L212 221M291 180L291 181L330 181L330 300L291 300L320 301L329.972 299.397L331 279L331 225L331 194L329.972 181.603L320 180L291 180z"/>
<path style="fill:#5a585a; stroke:none;" d="M330 180L331 181L330 180z"/>
<path style="fill:#919090; stroke:none;" d="M369 180L370 181L369 180z"/>
<path style="fill:#c5c4c5; stroke:none;" d="M447 180L447 221L487 221L487 220L448 220L448 181L487 181C476.488 176.589 458.434 180 447 180M643 180L644 181L643 180z"/>
<path style="fill:#919090; stroke:none;" d="M760 180L761 181L760 180M839 180L839 181L878 181C867.726 176.689 850.172 180 839 180z"/>
<path style="fill:#c5c4c5; stroke:none;" d="M878 180L878 181L956 181L932 180L878 180z"/>
<path style="fill:#5a585a; stroke:none;" d="M956 180L957 181L956 180M995 180L996 181L995 180z"/>
<path style="fill:#c5c4c5; stroke:none;" d="M1034 180L1034 261L1113 261L1113 260L1035 260L1035 181L1113 181L1088 180L1034 180z"/>
<path style="fill:#919090; stroke:none;" d="M1113 180L1113 181L1152 181C1141.73 176.689 1124.17 180 1113 180z"/>
<path style="fill:#c5c4c5; stroke:none;" d="M1191 180L1191 181L1230 181C1219.73 176.689 1202.17 180 1191 180M1269 180L1269 181L1308 181C1297.73 176.689 1280.17 180 1269 180z"/>
<path style="fill:#5a585a; stroke:none;" d="M1308 180L1309 181L1308 180z"/>
<path style="fill:#c5c4c5; stroke:none;" d="M1387 180L1387 181L1465 181L1441 180L1387 180z"/>
<path style="fill:#919090; stroke:none;" d="M1465 180L1465 181L1504 181C1493.73 176.689 1476.17 180 1465 180M1543 180L1543 181L1582 181C1571.73 176.689 1554.17 180 1543 180z"/>
<path style="fill:#c5c4c5; stroke:none;" d="M1582 180L1582 181L1660 181L1660 220L1582 220L1582 221L1661 221L1661 180L1582 180z"/>
<path style="fill:#5a585a; stroke:none;" d="M1699 180L1700 181L1699 180z"/>
<path style="fill:#919090; stroke:none;" d="M1778 180L1778 181L1816 181C1805.96 176.789 1788.91 180 1778 180z"/>
<path style="fill:#c5c4c5; stroke:none;" d="M1816 180L1816 181L1895 181L1870 180L1816 180z"/>
<path style="fill:#5a585a; stroke:none;" d="M1934 180L1935 181L1934 180z"/>
<path style="fill:#919090; stroke:none;" d="M1935 180L1935 181L1973 181C1962.96 176.789 1945.91 180 1935 180M2051 180L2052 181L2051 180z"/>
<path style="fill:#c5c4c5; stroke:none;" d="M2717 180L2717 181L2796 181L2771 180L2717 180z"/>
<path style="fill:#919090; stroke:none;" d="M2796 180L2796 181L2834 181C2823.96 176.789 2806.91 180 2796 180z"/>
<path style="fill:#fefefe; stroke:none;" d="M135 181L135 220L213 220L213 181L135 181M291 181L291 300L330 300L330 181L291 181M409 181L409 220L447 220L447 181L409 181z"/>
<path style="fill:#5a585a; stroke:none;" d="M878 181L878 220L879 220C879 208.828 882.311 191.274 878 181z"/>
<path style="fill:#c5c4c5; stroke:none;" d="M995 181L995 260L996 260L996 206L995 181z"/>
<path style="fill:#fefefe; stroke:none;" d="M996 181L996 260L1034 260L1034 181L996 181z"/>
<path style="fill:#211f21; stroke:none;" d="M1035 181L1035 260L1112 260L1112 181L1035 181z"/>
<path style="fill:#5a585a; stroke:none;" d="M1112 181L1112 260L1113 260L1113 206L1112 181z"/>
<path style="fill:#fefefe; stroke:none;" d="M1113 181L1113 260L1152 260L1152 181L1113 181z"/>
<path style="fill:#5a585a; stroke:none;" d="M1269 181L1269 260L1270 260L1270 206L1269 181z"/>
<path style="fill:#c5c4c5; stroke:none;" d="M1386 181L1386 300L1387 300L1387 217L1386 181z"/>
<path style="fill:#5a585a; stroke:none;" d="M1464 181L1464 300L1465 300L1465 217L1464 181z"/>
<path style="fill:#fefefe; stroke:none;" d="M1465 181L1465 300L1504 300L1504 181L1465 181M1543 181L1543 260L1582 260L1582 300L1699 300L1699 261L1672 261L1661.6 259.397L1660 249L1660 221L1582 221L1582 181L1543 181z"/>
<path style="fill:#5a585a; stroke:none;" d="M1582 181L1582 220L1583 220C1583 208.828 1586.31 191.274 1582 181z"/>
<path style="fill:#211f21; stroke:none;" d="M1583 181L1583 220L1660 220L1660 181L1583 181z"/>
<path style="fill:#fefefe; stroke:none;" d="M1661 181L1661 220L1699 220L1699 181L1661 181z"/>
<path style="fill:#c5c4c5; stroke:none;" d="M1699 181L1699 220L1700 220C1700 208.828 1703.31 191.274 1699 181M1934 181L1934 220L1935 220C1935 208.828 1938.31 191.274 1934 181M2012 181L2012 221L2051 221L2051 260L2052 260L2052 231L2050.4 221.028L2040 220L2013 220C2013 208.828 2016.31 191.274 2012 181z"/>
<path style="fill:#211f21; stroke:none;" d="M2717 181L2717 260L2795 260L2795 181L2717 181z"/>
<path style="fill:#fefefe; stroke:none;" d="M2795 181L2795 260L2834 260L2834 181L2795 181z"/>
<path style="fill:#5a585a; stroke:none;" d="M2834 181L2834 260L2835 260L2835 206L2834 181M134 220L135 221L134 220z"/>
<path style="fill:#c5c4c5; stroke:none;" d="M212 220L212 221L252 221C241.488 216.589 223.434 220 212 220z"/>
<path style="fill:#5a585a; stroke:none;" d="M252 220L252 260L253 260C253 248.566 256.411 230.512 252 220z"/>
<path style="fill:#919090; stroke:none;" d="M369 220L370 221L369 220z"/>
<path style="fill:#c5c4c5; stroke:none;" d="M369 300L370 300L370 221L408 221L408 300L409 300L409 220L381 220L370.603 221.028L369 241L369 300M643 220L644 221L643 220z"/>
<path style="fill:#919090; stroke:none;" d="M643 260L644 260L644 221L721 221L721 249L722.028 259.397L732 261L761 261L761 260L722 260L722 232L720.972 221.603L706 220L661 220L644.028 221.603L643 232L643 260M760 220L761 221L760 220M839 220L839 221L878 221C867.726 216.689 850.172 220 839 220M1661 220L1661 221L1699 221C1688.96 216.789 1671.91 220 1661 220z"/>
<path style="fill:#5a585a; stroke:none;" d="M1699 220L1700 221L1699 220z"/>
<path style="fill:#919090; stroke:none;" d="M1778 220L1778 221L1817 221C1806.73 216.689 1789.17 220 1778 220z"/>
<path style="fill:#5a585a; stroke:none;" d="M1934 220L1935 221L1934 220z"/>
<path style="fill:#919090; stroke:none;" d="M1935 220L1935 221L2012 221L1988 220L1935 220M2051 220L2052 221L2051 220z"/>
<path style="fill:#5a585a; stroke:none;" d="M212 221L212 260L213 260C213 248.828 216.311 231.274 212 221z"/>
<path style="fill:#fefefe; stroke:none;" d="M213 221L213 260L252 260L252 221L213 221M370 221L370 300L408 300L408 221L370 221M448 221L448 300L487 300L487 221L448 221z"/>
<path style="fill:#211f21; stroke:none;" d="M644 221L644 260L721 260L721 221L644 221z"/>
<path style="fill:#fefefe; stroke:none;" d="M722 221L722 260L760 260L760 221L722 221z"/>
<path style="fill:#919090; stroke:none;" d="M1660 221L1660 260L1661 260C1661 248.828 1664.31 231.274 1660 221M2012 221L2012 250L2013.6 259.972L2024 261L2051 261L2051 260L2013 260C2013 248.828 2016.31 231.274 2012 221z"/>
<path style="fill:#fefefe; stroke:none;" d="M2013 221L2013 260L2051 260L2051 221L2013 221z"/>
<path style="fill:#5a585a; stroke:none;" d="M95 260L96 261L95 260z"/>
<path style="fill:#c5c4c5; stroke:none;" d="M96 260L96 261L213 261L177 260L96 260z"/>
<path style="fill:#919090; stroke:none;" d="M213 260L213 261L252 261C241.726 256.689 224.172 260 213 260z"/>
<path style="fill:#c5c4c5; stroke:none;" d="M644 260L644 261L721 261L721 300L722 300L722 260L644 260z"/>
<path style="fill:#5a585a; stroke:none;" d="M995 260L996 261L995 260z"/>
<path style="fill:#919090; stroke:none;" d="M996 260L996 261L1034 261C1023.96 256.789 1006.91 260 996 260M1113 260L1113 261L1152 261C1141.73 256.689 1124.17 260 1113 260M1230 260L1230 261L1269 261C1258.73 256.689 1241.17 260 1230 260z"/>
<path style="fill:#c5c4c5; stroke:none;" d="M1269 260L1269 261L1308 261C1297.73 256.689 1280.17 260 1269 260z"/>
<path style="fill:#5a585a; stroke:none;" d="M1308 260L1309 261L1308 260z"/>
<path style="fill:#919090; stroke:none;" d="M1543 260L1543 261L1582 261C1571.73 256.689 1554.17 260 1543 260z"/>
<path style="fill:#c5c4c5; stroke:none;" d="M1661 260L1661 261L1699 261L1699 300L1700 271L1698.4 261.028L1688 260L1661 260z"/>
<path style="fill:#919090; stroke:none;" d="M1699 260L1700 261L1699 260M1934 260L1935 261L1934 260z"/>
<path style="fill:#c5c4c5; stroke:none;" d="M1934 300L1935 300L1935 261L2012 261L2012 300L2013 300L2013 260L1955 260L1935.03 261.603L1934 272L1934 300z"/>
<path style="fill:#5a585a; stroke:none;" d="M2051 260L2052 261L2051 260z"/>
<path style="fill:#919090; stroke:none;" d="M2169 260L2169 261L2208 261C2197.73 256.689 2180.17 260 2169 260z"/>
<path style="fill:#c5c4c5; stroke:none;" d="M2208 260L2208 261L2286 261L2262 260L2208 260z"/>
<path style="fill:#5a585a; stroke:none;" d="M2286 260L2287 261L2286 260M2325 260L2326 261L2325 260z"/>
<path style="fill:#919090; stroke:none;" d="M2443 260L2443 261L2482 261C2471.73 256.689 2454.17 260 2443 260z"/>
<path style="fill:#c5c4c5; stroke:none;" d="M2599 260L2599 300L2600 300L2600 261L2638 261L2638 300L2639 271L2637.4 261.028L2627 260L2599 260z"/>
<path style="fill:#919090; stroke:none;" d="M2638 260L2639 261L2638 260z"/>
<path style="fill:#c5c4c5; stroke:none;" d="M2717 260L2717 261L2796 261L2771 260L2717 260z"/>
<path style="fill:#919090; stroke:none;" d="M2796 260L2796 261L2834 261C2823.96 256.789 2806.91 260 2796 260M95 261L95 289C95 291.91 94.0883 296.948 96.0278 299.397C99.7032 304.037 119.339 301 125 301L213 301L213 300L96 300C96 288.828 99.3111 271.274 95 261z"/>
<path style="fill:#fefefe; stroke:none;" d="M96 261L96 300L213 300L213 261L96 261z"/>
<path style="fill:#919090; stroke:none;" d="M1034 261L1034 289L1035.03 299.397L1055 301L1113 301L1113 300L1035 300C1035 288.828 1038.31 271.274 1034 261z"/>
<path style="fill:#fefefe; stroke:none;" d="M1035 261L1035 300L1113 300L1113 261L1035 261M1269 261L1269 300L1308 300L1308 261L1269 261z"/>
<path style="fill:#919090; stroke:none;" d="M1308 261L1308 300L1269 300L1269 301L1297 301L1307.4 299.972L1309 290L1308 261z"/>
<path style="fill:#fefefe; stroke:none;" d="M1935 261L1935 300L2012 300L2012 261L1935 261M2208 261L2208 300L2286 300L2286 261L2208 261z"/>
<path style="fill:#919090; stroke:none;" d="M2286 261L2286 300L2208 300L2208 301L2265 301L2285.4 299.972L2287 290L2286 261z"/>
<path style="fill:#fefefe; stroke:none;" d="M2365 261L2365 300L2404 300L2404 261L2365 261M2482 261L2482 300L2560 300L2560 261L2482 261M2600 261L2600 300L2638 300L2638 261L2600 261z"/>
<path style="fill:#5a585a; stroke:none;" d="M2795 261L2795 300L2796 300C2796 288.827 2799.31 271.274 2795 261M95 300L96 301L95 300M330 300L331 301L330 300M369 300L370 301L369 300z"/>
<path style="fill:#919090; stroke:none;" d="M370 300L370 301L409 301C398.726 296.689 381.172 300 370 300z"/>
<path style="fill:#5a585a; stroke:none;" d="M447 300L448 301L447 300z"/>
<path style="fill:#919090; stroke:none;" d="M604 300L604 301L721 301L686 300L604 300z"/>
<path style="fill:#5a585a; stroke:none;" d="M721 300L722 301L721 300z"/>
<path style="fill:#919090; stroke:none;" d="M800 300L800 301L839 301C828.726 296.689 811.172 300 800 300z"/>
<path style="fill:#5a585a; stroke:none;" d="M1034 300L1035 301L1034 300M1308 300L1309 301L1308 300M1347 300L1348 301L1347 300z"/>
<path style="fill:#919090; stroke:none;" d="M1348 300L1348 301L1386 301C1375.96 296.789 1358.91 300 1348 300z"/>
<path style="fill:#5a585a; stroke:none;" d="M1386 300L1387 301L1386 300z"/>
<path style="fill:#919090; stroke:none;" d="M1465 300L1465 301L1504 301C1493.73 296.689 1476.17 300 1465 300M1582 300L1582 301L1699 301L1664 300L1582 300z"/>
<path style="fill:#5a585a; stroke:none;" d="M1699 300L1700 301L1699 300M1738 300L1739 301L1738 300M1934 300L1935 301L1934 300z"/>
<path style="fill:#919090; stroke:none;" d="M1935 300L1935 301L2012 301L1988 300L1935 300z"/>
<path style="fill:#5a585a; stroke:none;" d="M2012 300L2013 301L2012 300M2286 300L2287 301L2286 300M2364 300L2365 301L2364 300M2560 300L2561 301L2560 300z"/>
<path style="fill:#919090; stroke:none;" d="M2599 300L2599 301L2638 301C2627.73 296.689 2610.17 300 2599 300z"/>
<path style="fill:#5a585a; stroke:none;" d="M2638 300L2639 301L2638 300M2677 300L2678 301L2677 300z"/>
</svg>
